<!-- Generated by IcoMoon.io -->
<svg version="1.1" xmlns="http://www.w3.org/2000/svg" width="640" height="640" viewBox="0 0 640 640">
<title></title>
<g id="icomoon-ignore">
</g>
<path fill="#000" d="M320 640c-176.731 0-320-143.269-320-320s143.269-320 320-320v0c176.731 0 320 143.269 320 320s-143.269 320-320 320v0zM568 384c5.157-19.206 8.119-41.258 8.119-64s-2.962-44.794-8.521-65.788l0.403 1.788h-122.24c1.417 19.148 2.224 41.48 2.224 64s-0.808 44.852-2.395 66.968l0.171-2.968h122.24zM541.76 448h-103.040c-5.939 41.929-16.574 79.779-31.535 115.362l1.135-3.042c57.039-21.441 103.229-60.802 132.784-111.113l0.656-1.207zM258.56 384h122.88c1.659-19.168 2.605-41.473 2.605-64s-0.946-44.834-2.8-66.881l0.195 2.881h-122.88c-1.659 19.168-2.605 41.473-2.605 64s0.946 44.834 2.8 66.881l-0.195-2.881zM266.56 448c13.12 76.8 36.16 128 53.44 128s40.32-51.2 53.44-128h-106.88zM72 384h122.24c-1.417-19.148-2.224-41.48-2.224-64s0.807-44.852 2.395-66.968l-0.171 2.968h-122.24c-5.157 19.206-8.119 41.258-8.119 64s2.962 44.794 8.521 65.788l-0.403-1.788zM98.24 448c30.211 51.518 76.401 90.879 131.671 111.734l1.769 0.586c-13.44-30.72-23.68-69.12-30.4-112.32h-103.040zM541.76 192c-30.211-51.518-76.401-90.879-131.671-111.734l-1.769-0.586c13.44 30.72 23.68 69.12 30.4 112.32h103.040zM266.56 192h106.88c-13.12-76.8-36.16-128-53.44-128s-40.32 51.2-53.44 128zM98.24 192h103.040c6.4-43.2 16.96-81.6 30.4-112.32-57.039 21.441-103.229 60.802-132.784 111.113l-0.656 1.207z"></path>
</svg>
